{"title":"Romanii.Au.Talent.S02E01.720p.HDTV.x264-GBL","uid":7042799,"size":3764211587,"categoryP":"video","categoryS":"hd___tv_shows","magnet":"?xt=urn:btih:cfb744d4d275124ff1e0ab60d3d352636f7dd861&amp;dn=Romanii.Au.Talent.S02E01.720p.HDTV.x264-GBL&amp;tr=udp%3A%2F%2Ftracker.openbittorrent.com%3A80&amp;tr=udp%3A%2F%2Fopen.demonii.com%3A1337&amp;tr=udp%3A%2F%2Ftracker.coppersurfer.tk%3A6969&amp;tr=udp%3A%2F%2Fexodus.desync.com%3A6969","seeders":0,"leechers":0,"uploader":"lucabara","files":2,"time":1329615651,"description":"Romanii.Au.Talent.S02E01.720p.HDTV.x264-GBL (Romania\\\\\\\\\\\\\\'s got talent)\n\nair date: 17/02/2012\nrel date: 18/02/2012\n\nCRF 19 preset slow\n\nAudio ROMANIAN\nID                                       : 2\nFormat                                   : AC-3\nFormat/Info                              : Audio Coding 3\nMode extension                           : CM (complete main)\nCodec ID                                 : A_AC3\nDuration                                 : 1h 45mn\nBit rate mode                            : Constant\nBit rate                                 : 384 Kbps\nChannel(s)                               : 2 channels\nChannel positions                        : Front: L R\nSampling rate                            : 48.0 KHz\nBit depth                                : 16 bits\nCompression mode                         : Lossy\nDelay relative to video                  : 12ms\nStream size                              : 291 MiB (8%)\nDefault                                  : Yes\nForced                                   : No\n\nFormat                                   : Matroska\nFormat version                           : Version 2\nFile size                                : 3.51 GiB\nDuration                                 : 1h 45mn\nOverall bit rate                         : 4 743 Kbps\n\nVideo\nID                                       : 1\nFormat                                   : AVC\nFormat/Info                              : Advanced Video Codec\nFormat profile                           : &lt;a class=&quot;__cf_email__&quot; href=&quot;/cdn-cgi/l/email-protection&quot; data-cfemail=&quot;91d9f8f6f9d1dda5bfa0&quot;&gt;[email&amp;#160;protected]&lt;/a&gt;&lt;script cf-hash='f9e31' type=&quot;text/javascript&quot;&gt;\n/* &lt;![CDATA[ */!function(){try{var t=&quot;currentScript&quot;in document?document.currentScript:function(){for(var t=document.getElementsByTagName(&quot;script&quot;),e=t.length;e--;)if(t[e].getAttribute(&quot;cf-hash&quot;))return t[e]}();if(t&amp;&amp;t.previousSibling){var e,r,n,i,c=t.previousSibling,a=c.getAttribute(&quot;data-cfemail&quot;);if(a){for(e=&quot;&quot;,r=parseInt(a.substr(0,2),16),n=2;a.length-n;n+=2)i=parseInt(a.substr(n,2),16)^r,e+=String.fromCharCode(i);e=document.createTextNode(e),c.parentNode.replaceChild(e,c)}}}catch(u){}}();/* ]]&gt; */&lt;/script&gt;\nFormat settings, CABAC                   : Yes\nFormat settings, ReFrames                : 5 frames\nCodec ID                                 : V_MPEG4/ISO/AVC\nDuration                                 : 1h 45mn\nBit rate                                 : 4 264 Kbps\nWidth                                    : 1 280 pixels\nHeight                                   : 720 pixels\nDisplay aspect ratio                     : 16:9\nFrame rate                               : 25.000 fps\nColor space                              : YUV\nChroma subsampling                       : 4:2:0\nBit depth                                : 8 bits\nScan type                                : Progressive\nBits/(Pixel*Frame)                       : 0.185\nStream size                              : 3.15 GiB (90%)\nWriting library                          : x264 core 120 r2164 da19765","torrent":{"xt":"urn:btih:cfb744d4d275124ff1e0ab60d3d352636f7dd861","amp;dn":"Romanii.Au.Talent.S02E01.720p.HDTV.x264-GBL","amp;tr":["udp%3A%2F%2Ftracker.openbittorrent.com%3A80","udp%3A%2F%2Fopen.demonii.com%3A1337","udp%3A%2F%2Ftracker.coppersurfer.tk%3A6969","udp%3A%2F%2Fexodus.desync.com%3A6969"],"infoHash":"cfb744d4d275124ff1e0ab60d3d352636f7dd861","infoHashBuffer":{"type":"Buffer","data":[207,183,68,212,210,117,18,79,241,224,171,96,211,211,82,99,111,125,216,97]},"announce":[],"urlList":[]}}